<svg xmlns="http://www.w3.org/2000/svg" xmlns:xlink="http://www.w3.org/1999/xlink" version="1.1" width="1000" height="1000" viewBox="0 0 1000 1000" xml:space="preserve">
<desc>Created with Fabric.js 3.5.0</desc>
<defs>
</defs>
<rect x="0" y="0" width="100%" height="100%" fill="#ffffff"/>
<g transform="matrix(3.3517 0 0 3.3517 499.9965 499.9965)" id="363486">
<g style="" vector-effect="non-scaling-stroke">
		<g transform="matrix(1 0 0 1 0 0)">
<path style="stroke: none; stroke-width: 1; stroke-dasharray: none; stroke-linecap: butt; stroke-dashoffset: 0; stroke-linejoin: miter; stroke-miterlimit: 4; is-custom-font: none; font-file-url: none; fill: rgb(28,28,27); fill-rule: nonzero; opacity: 1;" transform=" translate(-250, -250)" d="M 0 0 C 165 0 330 0 500 0 C 500 165 500 330 500 500 C 335 500 170 500 0 500 C 0 335 0 170 0 0 Z" stroke-linecap="round"/>
</g>
		<g transform="matrix(1 0 0 1 4 -8.5)">
<path style="stroke: none; stroke-width: 1; stroke-dasharray: none; stroke-linecap: butt; stroke-dashoffset: 0; stroke-linejoin: miter; stroke-miterlimit: 4; is-custom-font: none; font-file-url: none; fill: rgb(229,226,221); fill-rule: nonzero; opacity: 1;" transform=" translate(-95, -81.5)" d="M 0 0 C 62.7 0 125.4 0 190 0 C 190 7.26 190 14.52 190 22 C 169.87 22 149.74 22 129 22 C 129 37.18 129 52.36 129 68 C 144.51 68 160.02 68 176 68 C 176 75.26 176 82.52 176 90 C 160.49 90 144.98 90 129 90 C 129 114.09 129 138.18 129 163 C 118.77 163 108.54 163 98 163 C 97.97494385 158.41641602 97.9498877 153.83283203 97.92407227 149.11035156 C 97.84071352 133.99095122 97.75206239 118.87158536 97.66066074 103.7522316 C 97.60535686 94.58255538 97.5518795 85.41287527 97.50268555 76.24316406 C 97.459809 68.25187306 97.41352222 60.26061038 97.36312145 52.26936316 C 97.3365485 48.03715137 97.3116961 43.80494509 97.29092598 39.5727005 C 97.2713279 35.59024975 97.24717462 31.60785276 97.21950912 27.62545013 C 97.21015549 26.1629382 97.20247416 24.70041449 97.19658089 23.23788452 C 97.18829112 21.24240789 97.17342564 19.24696179 97.15821838 17.25152588 C 97.15176583 16.13431278 97.14531328 15.01709969 97.1386652 13.86603165 C 97.08277927 10.77757054 97.08277927 10.77757054 96 7 C 95.67 11.95 95.34 16.9 95 22 C 74.87 22 54.74 22 34 22 C 34 37.51 34 53.02 34 69 C 49.51 69 65.02 69 81 69 C 81 75.93 81 82.86 81 90 C 65.49 90 49.98 90 34 90 C 34 114.09 34 138.18 34 163 C 23.77 163 13.54 163 3 163 C 2.98018066 158.45307373 2.96036133 153.90614746 2.93994141 149.22143555 C 2.87298667 134.18587978 2.79544592 119.1503923 2.71247292 104.1149168 C 2.66243217 95.00037487 2.61598852 85.88584156 2.578125 76.77124023 C 2.54509931 68.82343958 2.50521027 60.87570746 2.45720994 52.92798263 C 2.43204972 48.72292865 2.41023799 44.51791953 2.39665604 40.3128109 C 2.38373996 36.34752842 2.36158471 32.38240058 2.33261681 28.4172039 C 2.32361507 26.96892733 2.31786831 25.5206259 2.31578636 24.07232285 C 2.31241094 22.07928178 2.29566551 20.08627727 2.2784729 18.0933075 C 2.27294214 16.98254695 2.26741138 15.8717864 2.26171303 14.72736645 C 1.91383979 9.77289006 0.88846568 4.88656124 0 0 Z" stroke-linecap="round"/>
</g>
</g>
</g>
</svg>